HIERARCHY
ROOT Hips
{
	OFFSET 0.000000 0.000000 0.000000
	CHANNELS 6 Xposition Yposition Zposition Zrotation Yrotation Xrotation 
	JOINT LowerBack
	{
		OFFSET 0.000000 0.000000 0.000000
		CHANNELS 3 Zrotation Yrotation Xrotation
		JOINT Spine
		{
			OFFSET 0.028270 2.035590 -0.193380
			CHANNELS 3 Zrotation Yrotation Xrotation
			JOINT Spine1
			{
				OFFSET 0.056720 2.048850 -0.042750
				CHANNELS 3 Zrotation Yrotation Xrotation
				JOINT Neck
				{
					OFFSET 0.000000 0.000000 0.000000
					CHANNELS 3 Zrotation Yrotation Xrotation
					JOINT Neck1
					{
						OFFSET -0.054170 1.746240 0.172020
						CHANNELS 3 Zrotation Yrotation Xrotation
						JOINT Head
						{
							OFFSET 0.104070 1.761360 -0.123970
							CHANNELS 3 Zrotation Yrotation Xrotation
							End Site
							{
								OFFSET 0.000000 0.000000 0.000000
							}
						}
					}
				}
				JOINT LeftShoulder
				{
					OFFSET 0.000000 0.000000 0.000000
					CHANNELS 3 Zrotation Yrotation Xrotation
					JOINT LeftArm
					{
						OFFSET 3.362410 1.200890 -0.311210
						CHANNELS 3 Zrotation Yrotation Xrotation
						JOINT LeftForeArm
						{
							OFFSET 4.983000 -0.000000 -0.000000
							CHANNELS 3 Zrotation Yrotation Xrotation
							JOINT LeftHand
							{
								OFFSET 3.483560 -0.000000 -0.000000
								CHANNELS 3 Zrotation Yrotation Xrotation
								JOINT LeftFingerBase
								{
									OFFSET 0.000000 0.000000 0.000000
									CHANNELS 3 Zrotation Yrotation Xrotation
									JOINT LeftHandIndex1
									{
										OFFSET 0.715260 -0.000000 -0.000000
										CHANNELS 3 Zrotation Yrotation Xrotation
										End Site
										{
											OFFSET 0.000000 0.000000 0.000000
										}
									}
								}
								JOINT LThumb
								{
									OFFSET 0.000000 0.000000 0.000000
									CHANNELS 3 Zrotation Yrotation Xrotation
									End Site
									{
										OFFSET 0.000000 0.000000 0.000000
									}
								}
							}
						}
					}
				}
				JOINT RightShoulder
				{
					OFFSET 0.000000 0.000000 0.000000
					CHANNELS 3 Zrotation Yrotation Xrotation
					JOINT RightArm
					{
						OFFSET -3.136600 1.374050 -0.404650
						CHANNELS 3 Zrotation Yrotation Xrotation
						JOINT RightForeArm
						{
							OFFSET -5.241900 -0.000000 -0.000000
							CHANNELS 3 Zrotation Yrotation Xrotation
							JOINT RightHand
							{
								OFFSET -3.444170 -0.000000 -0.000000
								CHANNELS 3 Zrotation Yrotation Xrotation
								JOINT RightFingerBase
								{
									OFFSET 0.000000 0.000000 0.000000
									CHANNELS 3 Zrotation Yrotation Xrotation
									JOINT RightHandIndex1
									{
										OFFSET -0.622530 -0.000000 -0.000000
										CHANNELS 3 Zrotation Yrotation Xrotation
										End Site
										{
											OFFSET 0.000000 0.000000 0.000000
										}
									}
								}
								JOINT RThumb
								{
									OFFSET 0.000000 0.000000 0.000000
									CHANNELS 3 Zrotation Yrotation Xrotation
									End Site
									{
										OFFSET 0.000000 0.000000 0.000000
									}
								}
							}
						}
					}
				}
			}
		}
	}
}
}
MOTION
Frames: 12
Frame Time: 0.008333
-19.584078 15.984438 -0.445442 15.402580 83.365339 39.111482 -6.096839 1.373262 -6.179321 -2.175601 1.646752 -4.618422 -6.153459 1.471298 -0.820169 9.016715 -0.045764 -4.843769 -3.395048 -0.297650 0.721901 0.000000 0.000000 0.000000 -3.645466 9.205021 3.203473 -56.946115 26.818497 5.486019 -4.952797 -11.642187 -0.009711 0.975497 4.157239 0.041445 -0.149065 -0.094470 -0.000000 0.000000 0.000000 0.000000 0.000000 0.000000 0.000000 13.702572 6.527318 0.443641 63.503992 47.058746 18.119501 1.208475 54.030326 -0.006824 -1.217755 8.873748 -0.097942 -0.000251 -0.432254 -0.000000 0.000000 0.000000 0.000000 0.000000 0.000000 0.000000 
-19.338639 16.018333 -0.453373 16.404879 83.329935 40.023492 -6.306384 1.330307 -6.152838 -2.235722 1.624786 -4.620129 -6.213404 1.448706 -0.858304 9.127309 0.034318 -4.825201 -3.452679 -0.301747 0.721547 0.000000 0.000000 0.000000 -3.509335 8.977206 3.245974 -57.062582 25.640243 5.390518 -4.932483 -11.199348 -0.009008 1.239900 4.069403 0.050059 -0.147029 -0.088427 -0.000000 0.000000 0.000000 0.000000 0.000000 0.000000 0.000000 14.030728 6.583245 0.448124 64.119695 46.147345 17.844689 1.228036 53.246168 -0.009538 -1.791807 8.984734 -0.147214 0.008966 -0.430193 -0.000000 0.000000 0.000000 0.000000 0.000000 0.000000 0.000000 
-19.096715 16.055472 -0.461812 17.593202 83.330453 41.088309 -6.498443 1.265599 -6.070026 -2.290600 1.579423 -4.608560 -6.275088 1.403104 -0.890478 9.236023 0.119840 -4.801578 -3.518219 -0.306339 0.721449 0.000000 0.000000 0.000000 -3.349427 8.712805 3.293501 -57.281400 24.329662 5.267016 -4.903317 -10.709198 -0.008253 1.547282 3.971208 0.059574 -0.144411 -0.081643 -0.000000 0.000000 0.000000 0.000000 0.000000 0.000000 0.000000 14.395974 6.619268 0.455217 64.743661 45.143957 17.581276 1.248443 52.376485 -0.012149 -2.365766 9.093696 -0.197397 0.018078 -0.426672 -0.000000 0.000000 0.000000 0.000000 0.000000 0.000000 0.000000 
-18.858472 16.095448 -0.470695 18.901120 83.366012 42.248877 -6.663651 1.180952 -5.945752 -2.338040 1.511273 -4.586165 -6.338544 1.334791 -0.915005 9.342734 0.205973 -4.770514 -3.589622 -0.311314 0.722661 0.000000 0.000000 0.000000 -3.167503 8.414343 3.341836 -57.592020 22.904983 5.133285 -4.865197 -10.195015 -0.007491 1.889295 3.864194 0.069592 -0.141264 -0.074278 -0.000000 0.000000 0.000000 0.000000 0.000000 0.000000 0.000000 14.788778 6.628005 0.462840 65.387357 44.053262 17.334558 1.271287 51.415060 -0.014437 -2.906103 9.194766 -0.245588 0.026636 -0.421455 -0.000000 0.000000 0.000000 0.000000 0.000000 0.000000 0.000000 
-18.623204 16.138025 -0.479113 20.491190 83.435175 43.669318 -6.820509 1.072075 -5.788215 -2.382114 1.417407 -4.555820 -6.406362 1.240445 -0.937414 9.456865 0.288379 -4.723734 -3.666243 -0.316746 0.727597 0.000000 0.000000 0.000000 -2.965658 8.044989 3.388040 -57.974349 21.438637 4.976719 -4.820976 -9.718918 -0.006800 2.249080 3.759317 0.079512 -0.137748 -0.066575 -0.000000 0.000000 0.000000 0.000000 0.000000 0.000000 0.000000 15.219216 6.600666 0.474494 66.054231 42.877447 17.103705 1.298485 50.356482 -0.016215 -3.382435 9.279284 -0.288693 0.034241 -0.414396 -0.000000 0.000000 0.000000 0.000000 0.000000 0.000000 0.000000 
-18.390689 16.182968 -0.487515 22.149851 83.527630 45.148803 -6.947192 0.945592 -5.614521 -2.418192 1.302723 -4.518134 -6.476127 1.125067 -0.946819 9.574063 0.359945 -4.671566 -3.745041 -0.322277 0.733852 0.000000 0.000000 0.000000 -2.745560 7.665536 3.427699 -58.411288 19.877856 4.872515 -4.768769 -9.271916 -0.006194 2.615491 3.653092 0.088934 -0.133911 -0.058616 -0.000000 0.000000 0.000000 0.000000 0.000000 0.000000 0.000000 15.666411 6.532902 0.483315 66.753435 41.628630 16.890952 1.331019 49.196916 -0.017329 -3.768174 9.344078 -0.323907 0.040596 -0.405361 -0.000000 0.000000 0.000000 0.000000 0.000000 0.000000 0.000000 
-18.160365 16.230232 -0.495671 23.866457 83.635469 46.682153 -7.044871 0.803208 -5.435920 -2.446954 1.169191 -4.476032 -6.548954 0.990420 -0.945989 9.697068 0.417005 -4.613025 -3.824825 -0.327850 0.742018 0.000000 0.000000 0.000000 -2.522727 7.266223 3.457453 -58.874545 18.267854 4.837710 -4.711104 -8.908813 -0.005728 2.966440 3.555979 0.097358 -0.129942 -0.050642 -0.000000 0.000000 0.000000 0.000000 0.000000 0.000000 0.000000 16.128533 6.421589 0.491496 67.480204 40.309575 16.687795 1.370233 47.936363 -0.017705 -4.046468 9.384126 -0.349130 0.045563 -0.394362 -0.000000 0.000000 0.000000 0.000000 0.000000 0.000000 0.000000 
-17.931737 16.279827 -0.503782 25.547229 83.752495 48.185965 -7.105684 0.648170 -5.264406 -2.466847 1.019686 -4.430802 -6.623648 0.839452 -0.930285 9.823986 0.453648 -4.556206 -3.903661 -0.333235 0.750162 0.000000 0.000000 0.000000 -2.310477 6.878603 3.474342 -59.337909 16.596168 4.923515 -4.649026 -8.650172 -0.005418 3.283773 3.471663 0.104483 -0.125995 -0.042767 -0.000000 0.000000 0.000000 0.000000 0.000000 0.000000 0.000000 16.594094 6.263260 0.497139 68.229207 38.930121 16.486455 1.416843 46.576278 -0.017345 -4.211107 9.400041 -0.363659 0.049153 -0.381481 -0.000000 0.000000 0.000000 0.000000 0.000000 0.000000 0.000000 
-17.704169 16.331938 -0.511458 27.243790 83.872724 49.717443 -7.137691 0.480849 -5.107740 -2.479987 0.855371 -4.386900 -6.702029 0.672954 -0.910771 9.957055 0.473046 -4.494745 -3.981094 -0.338512 0.760272 0.000000 0.000000 0.000000 -2.131612 6.456141 3.478268 -59.770668 14.954629 5.110601 -4.586675 -8.578843 -0.005284 3.545185 3.413774 0.110310 -0.122276 -0.035261 -0.000000 0.000000 0.000000 0.000000 0.000000 0.000000 0.000000 17.064052 6.061985 0.506766 68.985871 37.481756 16.261658 1.471060 45.126109 -0.016321 -4.261345 9.388876 -0.367192 0.051405 -0.366963 -0.000000 0.000000 0.000000 0.000000 0.000000 0.000000 0.000000 
-17.477302 16.386502 -0.519156 28.835823 83.994847 51.167388 -7.127841 0.304952 -4.974371 -2.483216 0.679133 -4.343996 -6.780798 0.494128 -0.878709 10.089272 0.469390 -4.442673 -4.054718 -0.343340 0.768679 0.000000 0.000000 0.000000 -1.995839 6.054098 3.468237 -60.151713 13.288183 5.460199 -4.524078 -8.683854 -0.005296 3.742351 3.376254 0.114740 -0.118907 -0.028085 -0.000000 0.000000 0.000000 0.000000 0.000000 0.000000 0.000000 17.518628 5.815855 0.516124 69.740745 35.979852 16.002205 1.532355 43.589999 -0.014768 -4.211915 9.360784 -0.361430 0.052572 -0.351057 -0.000000 0.000000 0.000000 0.000000 0.000000 0.000000 0.000000 
-17.250927 16.443538 -0.526705 30.356581 84.116090 52.573443 -7.081006 0.121229 -4.866876 -2.477482 0.492190 -4.304175 -6.859579 0.304114 -0.839660 10.218509 0.446319 -4.399399 -4.123438 -0.347675 0.775616 0.000000 0.000000 0.000000 -1.916270 5.655798 3.446289 -60.459537 11.635078 5.963040 -4.463449 -9.005329 -0.005423 3.868433 3.359409 0.117571 -0.116029 -0.021329 -0.000000 0.000000 0.000000 0.000000 0.000000 0.000000 0.000000 17.950535 5.530867 0.528316 70.479030 34.423368 15.680913 1.599594 41.978164 -0.012849 -4.079594 9.322000 -0.348268 0.052861 -0.334130 -0.000000 0.000000 0.000000 0.000000 0.000000 0.000000 0.000000 
-17.024877 16.502932 -0.534088 31.821466 84.234417 53.953730 -7.000521 -0.069130 -4.783954 -2.463248 0.296057 -4.266805 -6.936877 0.104677 -0.791500 10.341987 0.401945 -4.371585 -4.186038 -0.351360 0.779152 0.000000 0.000000 0.000000 -1.895609 5.280071 3.414417 -60.678002 9.976666 6.630990 -4.405456 -9.542376 -0.005624 3.927617 3.352888 0.118804 -0.113748 -0.014948 -0.000000 0.000000 0.000000 0.000000 0.000000 0.000000 0.000000 18.351833 5.208473 0.543125 71.187042 32.824505 15.279858 1.671483 40.296823 -0.010742 -3.889161 9.282687 -0.330208 0.052577 -0.316524 0.000000 0.000000 0.000000 0.000000 0.000000 0.000000 0.000000 
